#!OML:ASF I:\salsa\salsa 7_09\Patient 1\Session 1\dancerfemale.ASF
:FULLY-SPECIFIED
:DEGREES
1683
root 13.6749 16.6728 9.7299 -181.291 617.095 188.955
lowerback -0.224294 -0.893359 -0.276074
upperback -5.46724 -1.23722 1.3823
thorax -5.49061 -0.606652 1.64715
lowerneck 1.6989 -9.28637 -12.861
upperneck 10.7532 -13.8912 12.0266
head 4.66587 -7.03128 5.1229
rclavicle -4.02539e-015 -1.19271e-014
rhumerus -28.364 21.9034 -101.664
rradius 92.3955
rwrist 8.30492
rhand -10.3689 -319.814
rfingers 7.12502
rthumb 15.6284 10.7976
lclavicle -4.02539e-015 -1.19271e-014
lhumerus -85.3146 -17.9574 74.5395
lradius 62.2326
lwrist -26.2886
lhand 5.60354 -321.184
lfingers 7.12502
lthumb 30.9455 426.228
rfemur -29.3818 8.8344 14.034
rtibia 33.1662
rfoot 15.0213 30.8245
rtoes 32.1519
lfemur -12.0862 -11.7415 -22.7713
ltibia 35.1773
lfoot 0.888958 -17.6467
ltoes -18.683
1684
root 13.7855 16.6073 9.8409 -187.904 621.215 195.099
lowerback 0.549962 -0.769492 -0.679977
upperback -5.36644 -1.07981 1.39816
thorax -5.82586 -0.504547 1.89665
lowerneck 0.564016 -8.15155 -12.1315
upperneck 11.391 -12.1651 11.1219
head 4.72486 -6.15018 4.8075
rclavicle -2.21645e-014 1.98785e-014
rhumerus -26.8645 22.5651 -101.624
rradius 91.5717
rwrist 9.2559
rhand -9.33654 -320.143
rfingers 7.12502
rthumb 16.6225 10.549
lclavicle -2.21645e-014 1.98785e-014
lhumerus -84.6345 -18.287 70.7329
lradius 59.3195
lwrist -28.2296
lhand 6.81681 -320.568
lfingers 7.12502
lthumb 32.1013 426.618
rfemur -30.3956 9.42095 13.5555
rtibia 34.1992
rfoot 14.0206 31.3801
rtoes 29.8481
lfemur -11.3614 -8.9539 -24.5311
ltibia 35.687
lfoot -1.1324 -15.1815
ltoes -21.2024
1685
root 13.8901 16.5439 9.95033 -199.058 624.702 205.949
lowerback 1.13975 -0.81934 -0.917638
upperback -5.38256 -1.14843 1.61995
thorax -6.172 -0.517935 2.27803
lowerneck -0.537713 -6.97527 -11.5901
upperneck 12.1472 -10.4023 10.2245
head 4.85148 -5.26724 4.52491
rclavicle 4.96962e-017 -3.97569e-015
rhumerus -25.5685 23.4457 -101.69
rradius 90.5539
rwrist 10.2925
rhand -8.22042 -320.843
rfingers 7.12502
rthumb 17.6967 9.94222
lclavicle 4.96962e-017 -3.97569e-015
lhumerus -83.7202 -18.4963 66.6107
lradius 56.2217
lwrist -30.9185
lhand 7.60198 -320.061
lfingers 7.12502
lthumb 32.8485 426.972
rfemur -31.4092 9.775 13.4715
rtibia 35.1414
rfoot 12.676 31.5253
rtoes 29.1778
lfemur -11.0514 -6.53457 -25.806
ltibia 36.2176
lfoot -2.79647 -12.3586
ltoes -21.3157
1686
root 13.9932 16.4648 10.0496 -220.883 627.486 227.805
lowerback 1.30645 -0.913071 -0.734022
upperback -5.4681 -1.2564 1.97148
thorax -6.35103 -0.572297 2.55518
lowerneck -1.54628 -5.97803 -10.8904
upperneck 12.8486 -8.89159 9.24765
head 4.99053 -4.51512 4.17715
rclavicle -1.84373e-014 1.11319e-014
rhumerus -23.9948 24.3198 -101.643
rradius 89.1753
rwrist 11.2669
rhand -7.08544 -322.066
rfingers 7.12502
rthumb 18.7887 8.82129
lclavicle -1.84373e-014 1.11319e-014
lhumerus -82.1379 -18.8971 62.0943
lradius 53.2714
lwrist -33.4947
lhand 8.26021 -319.945
lfingers 7.12502
lthumb 33.4744 426.954
rfemur -32.494 9.6156 14.0933
rtibia 35.7554
rfoot 10.3051 31.1416
rtoes 27.1654
lfemur -11.2911 -4.68189 -26.2632
ltibia 36.6362
lfoot -4.27105 -10.1866
ltoes -23.5657
1687
root 14.0956 16.4342 10.141 -289.16 628.258 296.257
lowerback 1.34273 -1.10919 -0.799768
upperback -5.60527 -1.51571 2.30376
thorax -6.49657 -0.690218 2.96208
lowerneck -2.30361 -5.06399 -10.1499
upperneck 13.3723 -7.51825 8.29115
head 5.07264 -3.8405 3.82853
rclavicle 1.02374e-014 5.56597e-015
rhumerus -22.4964 25.1619 -101.701
rradius 87.518
rwrist 11.8215
rhand -6.11191 -322.864
rfingers 7.12502
rthumb 19.7248 8.11671
lclavicle 1.02374e-014 5.56597e-015
lhumerus -79.8381 -19.2267 56.9215
lradius 50.429
lwrist -36.295
lhand 8.55218 -320.182
lfingers 7.12502
lthumb 33.7519 426.656
rfemur -33.2054 8.88802 14.6913
rtibia 35.999
rfoot 6.8433 30.4618
rtoes 22.5567
lfemur -11.7145 -3.50838 -26.6596
ltibia 36.861
lfoot -5.57363 -8.78049
ltoes -25.9693
1688
root 14.1926 16.4473 10.2284 -329.925 626.923 337.291
lowerback 1.28348 -1.35324 -0.836825
upperback -5.78578 -1.83906 2.68266
thorax -6.6255 -0.841071 3.40614
lowerneck -2.81022 -4.1915 -9.48181
upperneck 13.6767 -6.22818 7.45772
head 5.08259 -3.2127 3.53102
rclavicle -1.35174e-014 -1.82882e-014
rhumerus -21.2647 26.2428 -101.812
rradius 85.8292
rwrist 11.8246
rhand -5.43072 -323.479
rfingers 7.12502
rthumb 20.3795 7.57065
lclavicle -1.35174e-014 -1.82882e-014
lhumerus -77.1272 -19.2166 51.3737
lradius 48.2491
lwrist -38.435
lhand 8.24077 -319.828
lfingers 7.12502
lthumb 33.4559 427.075
rfemur -33.5529 8.16082 15.3704
rtibia 35.9676
rfoot 2.92972 28.894
rtoes 18.6123
lfemur -12.1498 -2.97022 -26.8374
ltibia 36.8446
lfoot -6.54708 -7.39135
ltoes -26.1889
1689
root 14.2882 16.4336 10.3062 -340.872 625.226 348.252
lowerback 1.43727 -1.54203 -1.12295
upperback -5.85377 -2.09714 3.00287
thorax -6.75195 -0.944802 3.93026
lowerneck -3.52648 -3.47513 -9.30963
upperneck 14.1553 -5.18916 7.19711
head 5.24859 -2.70012 3.47604
rclavicle -3.67752e-014 1.11319e-014
rhumerus -20.5431 26.9914 -102.104
rradius 84.3088
rwrist 12.1189
rhand -5.01185 -323.205
rfingers 7.12502
rthumb 20.782 7.88813
lclavicle -3.67752e-014 1.11319e-014
lhumerus -73.6602 -18.7674 45.3442
lradius 46.688
lwrist -40.0708
lhand 7.45392 -319.225
lfingers 7.12502
lthumb 32.7077 427.837
rfemur -33.4547 7.84285 15.7598
rtibia 35.9975
rfoot -1.59023 26.112
rtoes 15.6689
lfemur -12.294 -2.7413 -27.0575
ltibia 36.6993
lfoot -7.59196 -6.15814
ltoes -27.1784
1690
root 14.3823 16.416 10.3776 -345.436 623.778 352.552
lowerback 1.92294 -1.72681 -1.54919
upperback -5.87891 -2.35321 3.34189
thorax -7.01507 -1.0333 4.56997
lowerneck -4.20201 -2.90882 -9.14691
upperneck 14.5959 -4.33753 6.82606
head 5.41619 -2.28877 3.37951
rclavicle -9.64106e-015 -6.36111e-015
rhumerus -20.3389 27.8234 -102.433
rradius 82.9446
rwrist 12.4155
rhand -5.01923 -322.235
rfingers 7.12502
rthumb 20.7749 8.85729
lclavicle -9.64106e-015 -6.36111e-015
lhumerus -70.0939 -17.9736 39.7647
lradius 46.0412
lwrist -40.5764
lhand 6.16316 -318.692
lfingers 7.12502
lthumb 31.4788 428.617
rfemur -32.9167 7.56405 16.039
rtibia 36.3266
rfoot -5.55245 22.8331
rtoes 16.4783
lfemur -12.2479 -2.79097 -27.2127
ltibia 36.7326
lfoot -8.66365 -5.34836
ltoes -28.4172
1691
root 14.481 16.3776 10.4476 -347.898 622.717 354.512
lowerback 2.6447 -1.8441 -1.81781
upperback -5.82613 -2.51493 3.53143
thorax -7.34717 -1.08242 4.96919
lowerneck -4.6398 -2.52794 -9.18835
upperneck 14.7654 -3.76381 6.73617
head 5.49504 -2.00907 3.3923
rclavicle 2.93207e-014 -3.02153e-014
rhumerus -20.1718 28.3313 -102.626
rradius 81.6964
rwrist 13.4266
rhand -5.36959 -320.533
rfingers 7.12502
rthumb 20.4383 10.5231
lclavicle 2.93207e-014 -3.02153e-014
lhumerus -66.2003 -17.0256 34.6869
lradius 46.4374
lwrist -39.6775
lhand 4.45057 -318.164
lfingers 7.12502
lthumb 29.8458 429.451
rfemur -32.1259 7.41981 16.0782
rtibia 37.2111
rfoot -9.07343 18.9337
rtoes 18.4371
lfemur -12.2972 -2.20259 -27.27
ltibia 37.2751
lfoot -9.48589 -5.83277
ltoes -28.3143
1692
root 14.582 16.3238 10.5205 -349.796 622.018 355.878
lowerback 3.3334 -1.82578 -1.66528
upperback -5.73994 -2.47949 3.43384
thorax -7.66858 -1.06526 4.80751
lowerneck -4.90594 -2.40298 -9.31963
upperneck 14.8105 -3.59864 7.03326
head 5.54693 -1.91118 3.51818
rclavicle 4.65156e-014 3.81667e-014
rhumerus -19.9839 28.21 -102.764
rradius 80.5676
rwrist 15.1781
rhand -6.96383 -319.321
rfingers 7.12502
rthumb 18.9056 11.5774
lclavicle 4.65156e-014 3.81667e-014
lhumerus -61.5034 -15.9086 29.988
lradius 47.2543
lwrist -38.1335
lhand 2.73735 -318.547
lfingers 7.12502
lthumb 28.2095 429.35
rfemur -31.1913 6.87185 16.0193
rtibia 38.3863
rfoot -12.0697 14.7063
rtoes 19.5554
lfemur -12.6592 -0.753987 -27.2321
ltibia 38.272
lfoot -10.1048 -6.83732
ltoes -27.5467
1693
root 14.6834 16.2781 10.5953 -352.05 621.596 357.752
lowerback 4.02336 -1.85417 -1.55595
upperback -5.80162 -2.5036 3.52301
thorax -8.13841 -1.06727 4.883
lowerneck -5.09184 -2.32872 -9.48041
upperneck 14.9388 -3.47935 7.0961
head 5.6123 -1.85591 3.57255
rclavicle -6.75868e-014 -1.82882e-014
rhumerus -20.1739 28.1252 -102.969
rradius 79.5293
rwrist 16.0507
rhand -7.77281 -318.698
rfingers 7.12502
rthumb 18.1274 12.1271
lclavicle -6.75868e-014 -1.82882e-014
lhumerus -57.0841 -14.1591 26.1688
lradius 48.6847
lwrist -35.8408
lhand 1.34984 -319.72
lfingers 7.12502
lthumb 26.8826 428.389
rfemur -30.3129 5.76795 16.0901
rtibia 39.7453
rfoot -14.5912 10.1008
rtoes 17.5402
lfemur -13.4056 0.805998 -27.0794
ltibia 39.6187
lfoot -10.5005 -7.49908
ltoes -26.8509
